<?xml version="1.0" encoding="utf-8"?>
<svg width="118.695984px" height="33.42102px" viewBox="0 0 118.695984 33.42102" version="1.1" xmlns:xlink="http://www.w3.org/1999/xlink" xmlns="http://www.w3.org/2000/svg">
  <defs>
    <linearGradient gradientUnits="userSpaceOnUse" x1="0" y1="0" x2="24.612387" y2="30.390953" id="gradient_1">
      <stop offset="0%" stop-color="#A0F4FF" />
      <stop offset="100%" stop-color="#02C8DB" />
    </linearGradient>
    <linearGradient gradientUnits="userSpaceOnUse" x1="0" y1="0" x2="25.858587" y2="18.891672" id="gradient_2">
      <stop offset="0%" stop-color="#39B3FF" />
      <stop offset="100%" stop-color="#1642A8" />
    </linearGradient>
    <linearGradient gradientUnits="userSpaceOnUse" x1="0" y1="0" x2="25.858587" y2="18.891672" id="gradient_3">
      <stop offset="0%" stop-color="#50FF93" />
      <stop offset="100%" stop-color="#168700" />
    </linearGradient>
    <path d="M6.81741 3.03003L31.4298 3.03003L31.4298 33.421L6.81741 33.421L6.81741 3.03003Z" id="path_1" />
    <path d="M12.8773 0L38.7359 0L38.7359 18.8917L12.8773 18.8917L12.8773 0Z" id="path_2" />
    <path d="M0 9.08997L25.8586 9.08997L25.8586 27.9816L0 27.9816L0 9.08997Z" id="path_3" />
    <clipPath id="clip_1">
      <use xlink:href="#path_1" />
    </clipPath>
    <clipPath id="clip_2">
      <use xlink:href="#path_2" />
    </clipPath>
    <clipPath id="clip_3">
      <use xlink:href="#path_3" />
    </clipPath>
  </defs>
  <g id="Group-3">
    <path d="M107.315 24.1367L107.315 10.7563L111.315 10.7563C112.66 10.7563 113.806 10.9563 114.751 11.3563C115.696 11.7562 116.457 12.2895 117.033 12.9561C117.608 13.6227 118.029 14.3681 118.296 15.1922C118.563 16.0164 118.696 16.8466 118.696 17.6829C118.696 18.6767 118.517 19.5705 118.16 20.3644C117.802 21.1582 117.314 21.8369 116.696 22.4005C116.078 22.9641 115.363 23.3943 114.551 23.6913C113.739 23.9882 112.878 24.1367 111.969 24.1367L107.315 24.1367ZM109.951 21.5916L111.515 21.5916C112.182 21.5916 112.788 21.5038 113.333 21.328C113.878 21.1523 114.348 20.8947 114.742 20.5554C115.136 20.216 115.439 19.7888 115.651 19.2737C115.863 18.7586 115.969 18.1678 115.969 17.5012C115.969 16.6285 115.827 15.9165 115.542 15.365C115.257 14.8136 114.905 14.3864 114.487 14.0834C114.069 13.7804 113.642 13.5713 113.206 13.4562C112.769 13.341 112.4 13.2834 112.097 13.2834L109.951 13.2834L109.951 21.5916ZM101.225 10.7563L103.861 10.7563L103.861 24.1367L101.225 24.1367L101.225 10.7563ZM87.7539 24.1367L87.7539 18.4101L86.4086 18.4101L86.4086 16.1558L87.7539 16.1558L87.7539 13.3925C87.7539 12.3502 88.0539 11.4987 88.6538 10.8382C89.2538 10.1777 90.1234 9.84741 91.2626 9.84741C91.602 9.84741 91.9807 9.89892 92.3989 10.0019C92.817 10.105 93.1836 10.2716 93.4988 10.5019L92.4261 12.338C92.3049 12.1805 92.1625 12.0744 91.9989 12.0199C91.8353 11.9654 91.6808 11.9381 91.5353 11.9381C91.1717 11.9381 90.8748 12.0593 90.6445 12.3017C90.4142 12.5441 90.2991 12.9319 90.2991 13.4652L90.2991 16.1558L92.6988 16.1558L92.6988 18.4101L90.2991 18.4101L90.2991 24.1367L87.7539 24.1367ZM79.1731 24.3549C78.4338 24.3549 77.7641 24.2065 77.1642 23.9095C76.5643 23.6126 76.0886 23.1551 75.7371 22.5369C75.3856 21.9188 75.2099 21.131 75.2099 20.1736C75.2099 19.2767 75.3917 18.501 75.7553 17.8466C76.1189 17.1921 76.5976 16.6861 77.1915 16.3285C77.7853 15.971 78.4156 15.7922 79.0822 15.7922C79.87 15.7922 80.4669 15.9225 80.8729 16.1831C81.2789 16.4437 81.6152 16.7315 81.8819 17.0466L81.7728 17.3557L82.0091 16.1922L84.3725 16.1922L84.3725 24.1368L81.8273 24.1368L81.8273 22.4097L82.0273 22.9551C82.0031 22.9551 81.9303 23.0248 81.8091 23.1642C81.6879 23.3035 81.5092 23.4671 81.2728 23.655C81.0365 23.8429 80.7456 24.0065 80.4002 24.1459C80.0548 24.2852 79.6457 24.3549 79.1731 24.3549L79.1731 24.3549ZM79.9003 22.2824C80.2033 22.2824 80.476 22.237 80.7184 22.1461C80.9608 22.0552 81.1729 21.9219 81.3547 21.7461C81.5365 21.5704 81.694 21.3492 81.8273 21.0826L81.8273 19.1373C81.7304 18.8707 81.5849 18.6434 81.391 18.4556C81.1971 18.2677 80.9668 18.1223 80.7002 18.0193C80.4335 17.9163 80.1366 17.8647 79.8094 17.8647C79.4458 17.8647 79.1095 17.9587 78.8004 18.1465C78.4913 18.3344 78.2459 18.5919 78.0641 18.9192C77.8823 19.2464 77.7914 19.6221 77.7914 20.0463C77.7914 20.4705 77.8884 20.8523 78.0823 21.1917C78.2762 21.531 78.5338 21.7976 78.8549 21.9916C79.1761 22.1855 79.5246 22.2824 79.9003 22.2824L79.9003 22.2824ZM69.6832 24.3548C68.7136 24.3548 67.8925 24.173 67.2198 23.8094C66.5472 23.4458 66.0351 22.9429 65.6836 22.3005C65.3322 21.6581 65.1564 20.9188 65.1564 20.0826C65.1564 19.2826 65.3625 18.5615 65.7745 17.9192C66.1866 17.2768 66.7381 16.7647 67.4289 16.383C68.1197 16.0012 68.8894 15.8103 69.7377 15.8103C70.877 15.8103 71.8133 16.1406 72.5465 16.8011C73.2798 17.4616 73.7555 18.4161 73.9736 19.6644L67.7925 21.6278L67.2289 20.2462L71.7012 18.7373L71.174 18.9736C71.077 18.6585 70.9043 18.3827 70.6558 18.1464C70.4074 17.9101 70.0347 17.7919 69.5378 17.7919C69.162 17.7919 68.8318 17.8798 68.547 18.0555C68.2622 18.2312 68.044 18.4797 67.8925 18.8009C67.741 19.1221 67.6652 19.5008 67.6652 19.9371C67.6652 20.434 67.7561 20.8491 67.9379 21.1824C68.1197 21.5157 68.3682 21.7672 68.6833 21.9369C68.9984 22.1066 69.3499 22.1914 69.7377 22.1914C70.0165 22.1914 70.2862 22.1429 70.5467 22.046C70.8073 21.949 71.0649 21.8218 71.3194 21.6642L72.4465 23.5549C72.0223 23.7973 71.5648 23.9912 71.074 24.1367C70.5831 24.2821 70.1195 24.3548 69.6832 24.3548L69.6832 24.3548ZM54.5394 10.7563L57.1755 10.7563L57.1755 21.5915L63.4657 21.5915L63.4657 24.1367L54.5394 24.1367L54.5394 10.7563Z" id="Leaf-ID" fill="#003913" stroke="none" />
    <g id="Rectangle-4">
      <use stroke="none" fill="url(#gradient_1)" xlink:href="#path_1" fill-rule="evenodd" />
      <g clip-path="url(#clip_1)">
        <use xlink:href="#path_1" fill="none" stroke="#000000" stroke-opacity="0.101960786" stroke-width="2" />
      </g>
    </g>
    <g id="Rectangle-5">
      <use stroke="none" fill="url(#gradient_2)" xlink:href="#path_2" fill-rule="evenodd" />
      <g clip-path="url(#clip_2)">
        <use xlink:href="#path_2" fill="none" stroke="#000000" stroke-opacity="0.101960786" stroke-width="2" />
      </g>
    </g>
    <g id="Rectangle-5-Copy">
      <use stroke="none" fill="url(#gradient_3)" xlink:href="#path_3" fill-rule="evenodd" />
      <g clip-path="url(#clip_3)">
        <use xlink:href="#path_3" fill="none" stroke="#000000" stroke-opacity="0.101960786" stroke-width="2" />
      </g>
    </g>
  </g>
</svg>