<?xml version="1.0" encoding="utf-8"?>
<svg width="114.456604px" height="34.68445px" viewBox="0 0 114.456604 34.68445" version="1.1" xmlns:xlink="http://www.w3.org/1999/xlink" xmlns="http://www.w3.org/2000/svg">
  <g id="Group-3-Copy-3">
    <path d="M31.7696 10.4659C32.0121 10.9028 32.3195 11.5304 32.424 12.0667C32.6059 13 32.1736 13.6571 32.1736 13.6571L33.2591 14.4172C33.4389 15.0043 33.5823 15.5782 33.6563 16.0885C34.0022 18.4745 32.8299 19.4678 32.8299 19.4678L33.9849 20.2765C34.0299 22.195 34.0448 23.9484 32.9473 25.7981C31.8499 27.6481 30.0926 28.1324 29.8118 28.4748C29.5549 28.788 30.6989 29.0806 30.4244 29.3677C27.6516 32.2682 24.1268 33.8514 22.791 34.3811L24.6343 28.7706C24.6343 28.7706 28.1597 27.8122 28.2301 27.6103C28.3005 27.4082 24.9157 27.9626 24.9157 27.9626L26.3791 23.4599C26.4493 23.2753 31.6427 22.2767 31.7144 22.0914C31.7913 21.8928 26.7466 22.5075 26.8251 22.3088C29.2064 16.2789 31.7696 10.4659 31.7696 10.4659Z" id="Rectangle-Copy-5" fill="#077500" fill-rule="evenodd" stroke="none" />
    <path d="M26.022 21.5075C25.516 22.7862 24.9367 24.5376 24.4696 26.0022C24.4519 26.0576 24.1289 25.9249 24.1289 25.9249L23.7764 26.9825C23.7764 26.9825 24.0994 27.1843 24.0918 27.2091L22.1308 34.2872C21.7828 33.9855 21.2083 33.465 20.6278 32.8419C20.5054 32.7106 21.8854 31.1195 23.0198 28.7452C24.015 26.6625 24.7408 23.8685 25.1866 22.3996C25.4333 22.1527 23.8286 21.784 23.7764 21.5075C23.7487 21.3607 24.5345 20.3319 24.834 19.3509C25.0987 18.4841 24.8722 17.6546 24.9778 17.5038C25.4182 16.8748 24.4984 13.9387 24.4984 13.9387C24.4984 13.9387 24.835 13.8576 24.946 13.78L25.7706 14.3574C25.7706 14.3574 26.1577 12.812 27.6316 11.6996C29.1055 10.587 31.2619 10.05 31.2619 10.05L27.1838 18.7814C27.1838 18.7814 25.6461 17.4065 25.0946 17.0871C25.0664 17.4011 24.9778 17.5038 24.9778 17.5038L26.5711 20.0931C26.5711 20.0931 26.528 20.2287 26.022 21.5075Z" id="Rectangle-Copy-6" fill="#1F9A17" fill-rule="evenodd" stroke="none" />
    <path d="M7.43268 0.0683594C8.19031 0.370656 9.22207 0.837585 9.88535 1.36207C11.0395 2.27468 11.078 3.36155 11.078 3.36155L13.313 3.36156C14.1293 3.88379 14.8828 4.42001 15.4786 4.93916C18.2647 7.36658 17.606 9.42079 17.606 9.42079L19.984 9.42077C21.9021 11.5576 23.6188 13.5311 23.8922 16.4959C24.1656 19.4607 22.2062 21.4026 22.1495 22.0128C22.0975 22.5711 23.9612 21.9955 23.8597 22.5382C22.8347 28.021 19.4965 32.6085 18.1633 34.2674L15.2825 26.4529C15.2825 26.4529 19.2261 22.5725 19.1279 22.288C19.0297 22.0034 14.8896 25.3147 14.8896 25.3147L12.5556 19.0561C12.474 18.7912 18.683 13.5427 18.6029 13.2761C18.517 12.9902 12.142 17.6861 12.0582 17.3988C9.51489 8.68294 7.43268 0.0683594 7.43268 0.0683594Z" id="Rectangle-Copy-3" fill="#077500" fill-rule="evenodd" stroke="none" />
    <path d="M10.1735 17.1283C10.7838 19.0307 11.6053 21.4199 12.3768 23.4486C12.5249 23.8382 3.76088 22.252 3.90897 22.6315C4.09211 23.3317 12.9555 24.9453 13.0224 25.1149L17.1603 34.6845C15.7404 34.5637 12.5477 34.2129 10.1735 33.3628C7.03042 32.2374 5.32168 30.2371 5.32168 30.2371C5.32168 30.2371 5.93646 28.9249 5.32168 28.4875C4.7069 28.0501 1.58355 26.559 1.21148 25.3831C0.875651 24.3218 0.00118848 22.6101 0.00118848 22.6101C0.00118848 22.6101 1.27533 21.76 1.21143 21.346C1.04564 20.2716 -0.0314396 19.2107 0.000704984 17.8854C0.0189927 17.1314 1.14471 17.7437 1.21144 17.0599C1.29527 16.2009 0.00117492 13.9495 0.0011712 12.4568C0.00116753 10.9641 0.939994 9.83983 1.21146 9.23126L2.90915 9.23124C2.90915 9.23124 1.94902 7.17437 2.90914 4.74606C3.86927 2.31775 6.32894 0 6.32894 0L9.14134 13.1203C9.14134 13.1203 2.75695 11.964 2.86257 12.4568C2.96819 12.9495 9.56383 15.0913 9.56383 15.0913C9.56383 15.0913 9.56327 15.2258 10.1735 17.1283Z" id="Rectangle-Copy-4" fill="#1F9A17" fill-rule="evenodd" stroke="none" />
  </g>
  <path d="M103.076 24.3778L103.076 10.9974L107.076 10.9974C108.421 10.9974 109.566 11.1974 110.512 11.5974C111.457 11.9973 112.217 12.5306 112.793 13.1971C113.369 13.8638 113.79 14.6091 114.057 15.4333C114.323 16.2574 114.457 17.0876 114.457 17.924C114.457 18.9177 114.278 19.8116 113.92 20.6055C113.563 21.3993 113.075 22.078 112.457 22.6416C111.839 23.2052 111.124 23.6355 110.312 23.9324C109.5 24.2294 108.639 24.3778 107.73 24.3778L103.076 24.3778ZM105.712 21.8328L107.276 21.8328C107.942 21.8328 108.548 21.7449 109.094 21.5691C109.639 21.3933 110.109 21.1359 110.503 20.7965C110.896 20.4572 111.199 20.0299 111.411 19.5148C111.624 18.9996 111.73 18.4088 111.73 17.7423C111.73 16.8696 111.587 16.1576 111.302 15.6061C111.018 15.0547 110.666 14.6274 110.248 14.3245C109.83 14.0215 109.403 13.8124 108.966 13.6973C108.53 13.5822 108.16 13.5245 107.857 13.5245L105.712 13.5245L105.712 21.8328ZM96.9858 10.9974L99.6219 10.9974L99.6219 24.3778L96.9858 24.3778L96.9858 10.9974ZM83.5145 24.3778L83.5145 18.6512L82.1691 18.6512L82.1691 16.3969L83.5145 16.3969L83.5145 13.6335C83.5145 12.5913 83.8144 11.7399 84.4144 11.0793C85.0142 10.4188 85.8839 10.0885 87.0231 10.0885C87.3625 10.0885 87.7413 10.14 88.1594 10.243C88.5775 10.3461 88.9442 10.5127 89.2592 10.7429L88.1866 12.5791C88.0655 12.4216 87.923 12.3156 87.7595 12.261C87.5958 12.2064 87.4412 12.1792 87.2958 12.1792C86.9322 12.1792 86.6353 12.3004 86.4051 12.5427C86.1747 12.7852 86.0596 13.173 86.0596 13.7063L86.0596 16.3969L88.4593 16.3969L88.4593 18.6512L86.0596 18.6512L86.0596 24.3778L83.5145 24.3778ZM74.9337 24.5961C74.1943 24.5961 73.5247 24.4475 72.9247 24.1506C72.3248 23.8536 71.8491 23.3961 71.4976 22.7781C71.1462 22.1599 70.9704 21.3721 70.9704 20.4147C70.9704 19.5178 71.1522 18.7421 71.5158 18.0876C71.8793 17.4332 72.3581 16.9271 72.952 16.5696C73.5458 16.212 74.1761 16.0333 74.8427 16.0333C75.6304 16.0333 76.2274 16.1636 76.6334 16.4242C77.0394 16.6848 77.3758 16.9727 77.6424 17.2877L77.5333 17.5968L77.7696 16.4332L80.133 16.4332L80.133 24.3778L77.5878 24.3778L77.5878 22.6508L77.7878 23.1962C77.7636 23.1962 77.6909 23.2659 77.5696 23.4053C77.4484 23.5447 77.2697 23.7083 77.0334 23.8961C76.7971 24.084 76.5062 24.2476 76.1607 24.387C75.8154 24.5264 75.4063 24.5961 74.9337 24.5961L74.9337 24.5961ZM75.6608 22.5236C75.9638 22.5236 76.2365 22.478 76.4789 22.3872C76.7213 22.2963 76.9334 22.163 77.1152 21.9872C77.2969 21.8115 77.4545 21.5903 77.5878 21.3236L77.5878 19.3784C77.4909 19.1118 77.3455 18.8845 77.1516 18.6967C76.9576 18.5088 76.7274 18.3634 76.4608 18.2604C76.194 18.1573 75.8972 18.1058 75.5699 18.1058C75.2064 18.1058 74.8699 18.1997 74.561 18.3876C74.2519 18.5754 74.0064 18.833 73.8246 19.1603C73.6429 19.4875 73.5519 19.8632 73.5519 20.2874C73.5519 20.7117 73.6489 21.0934 73.8428 21.4327C74.0367 21.7721 74.2943 22.0387 74.6154 22.2327C74.9366 22.4265 75.2851 22.5236 75.6608 22.5236L75.6608 22.5236ZM65.4437 24.5959C64.4741 24.5959 63.653 24.4141 62.9803 24.0505C62.3077 23.6869 61.7956 23.184 61.4442 22.5416C61.0927 21.8992 60.9169 21.1599 60.9169 20.3236C60.9169 19.5237 61.123 18.8026 61.5351 18.1603C61.9471 17.5179 62.4986 17.0059 63.1894 16.624C63.8802 16.2423 64.6498 16.0514 65.4982 16.0514C66.6375 16.0514 67.5738 16.3817 68.3071 17.0422C69.0402 17.7028 69.5159 18.6572 69.7342 19.9055L63.553 21.8689L62.9894 20.4873L67.4616 18.9784L66.9345 19.2147C66.8375 18.8995 66.6647 18.6238 66.4163 18.3875C66.1679 18.1511 65.7952 18.033 65.2983 18.033C64.9225 18.033 64.5922 18.1208 64.3074 18.2966C64.0226 18.4723 63.8045 18.7208 63.653 19.042C63.5015 19.3632 63.4257 19.7419 63.4257 20.1782C63.4257 20.6752 63.5167 21.0902 63.6984 21.4236C63.8802 21.7568 64.1287 22.0083 64.4438 22.178C64.759 22.3477 65.1104 22.4325 65.4982 22.4325C65.777 22.4325 66.0467 22.384 66.3072 22.2871C66.5678 22.1901 66.8254 22.0629 67.0799 21.9053L68.2071 23.796C67.7829 24.0383 67.3253 24.2323 66.8344 24.3777C66.3436 24.5232 65.8801 24.5959 65.4437 24.5959L65.4437 24.5959ZM50.3 10.9974L52.9361 10.9974L52.9361 21.8326L59.2263 21.8326L59.2263 24.3778L50.3 24.3778L50.3 10.9974Z" id="Leaf-ID-Copy-4" fill="#DEDEDE" stroke="none" />
</svg>