<?xml version="1.0" encoding="utf-8"?>
<svg width="118.69629px" height="33.42102px" viewBox="0 0 118.69629 33.42102" version="1.1" xmlns:xlink="http://www.w3.org/1999/xlink" xmlns="http://www.w3.org/2000/svg">
  <defs>
    <linearGradient gradientUnits="userSpaceOnUse" x1="0" y1="0" x2="64.156685" y2="14.507517" id="gradient_1">
      <stop offset="0%" stop-color="#00FF9D" />
      <stop offset="100%" stop-color="#00BBFF" />
    </linearGradient>
    <linearGradient gradientUnits="userSpaceOnUse" x1="0" y1="0" x2="24.612387" y2="30.390953" id="gradient_2">
      <stop offset="0%" stop-color="#A0F4FF" />
      <stop offset="100%" stop-color="#02C8DB" />
    </linearGradient>
    <linearGradient gradientUnits="userSpaceOnUse" x1="0" y1="0" x2="25.858587" y2="18.891672" id="gradient_3">
      <stop offset="0%" stop-color="#39B3FF" />
      <stop offset="100%" stop-color="#1642A8" />
    </linearGradient>
    <linearGradient gradientUnits="userSpaceOnUse" x1="0" y1="0" x2="25.858587" y2="18.891672" id="gradient_4">
      <stop offset="0%" stop-color="#50FF93" />
      <stop offset="100%" stop-color="#168700" />
    </linearGradient>
    <path d="M6.81763 3.03003L31.43 3.03003L31.43 33.421L6.81763 33.421L6.81763 3.03003Z" id="path_1" />
    <path d="M12.8774 0L38.736 0L38.736 18.8917L12.8774 18.8917L12.8774 0Z" id="path_2" />
    <path d="M0 9.08997L25.8586 9.08997L25.8586 27.9816L0 27.9816L0 9.08997Z" id="path_3" />
    <clipPath id="clip_1">
      <use xlink:href="#path_1" />
    </clipPath>
    <clipPath id="clip_2">
      <use xlink:href="#path_2" />
    </clipPath>
    <clipPath id="clip_3">
      <use xlink:href="#path_3" />
    </clipPath>
  </defs>
  <g id="Group-18">
    <path d="M107.316 24.1367L107.316 10.7563L111.315 10.7563C112.661 10.7563 113.806 10.9563 114.751 11.3563C115.697 11.7562 116.457 12.2895 117.033 12.9561C117.608 13.6227 118.03 14.3681 118.296 15.1922C118.563 16.0164 118.696 16.8466 118.696 17.6829C118.696 18.6767 118.517 19.5705 118.16 20.3644C117.802 21.1582 117.315 21.8369 116.696 22.4005C116.078 22.9641 115.363 23.3943 114.551 23.6913C113.739 23.9882 112.879 24.1367 111.97 24.1367L107.316 24.1367ZM109.952 21.5916L111.515 21.5916C112.182 21.5916 112.788 21.5038 113.333 21.328C113.878 21.1523 114.348 20.8947 114.742 20.5554C115.136 20.216 115.439 19.7888 115.651 19.2737C115.863 18.7586 115.969 18.1678 115.969 17.5012C115.969 16.6285 115.827 15.9165 115.542 15.365C115.257 14.8136 114.906 14.3864 114.488 14.0834C114.069 13.7804 113.642 13.5713 113.206 13.4562C112.77 13.341 112.4 13.2834 112.097 13.2834L109.952 13.2834L109.952 21.5916ZM101.225 10.7563L103.861 10.7563L103.861 24.1367L101.225 24.1367L101.225 10.7563ZM87.754 24.1367L87.754 18.4101L86.4087 18.4101L86.4087 16.1558L87.754 16.1558L87.754 13.3925C87.754 12.3502 88.054 11.4987 88.6539 10.8382C89.2538 10.1777 90.1234 9.84741 91.2627 9.84741C91.6021 9.84741 91.9808 9.89892 92.3989 10.0019C92.8171 10.105 93.1837 10.2716 93.4988 10.5019L92.4262 12.338C92.305 12.1805 92.1626 12.0744 91.999 12.0199C91.8354 11.9654 91.6808 11.9381 91.5354 11.9381C91.1718 11.9381 90.8749 12.0593 90.6446 12.3017C90.4143 12.5441 90.2992 12.9319 90.2992 13.4652L90.2992 16.1558L92.6989 16.1558L92.6989 18.4101L90.2992 18.4101L90.2992 24.1367L87.754 24.1367ZM79.1732 24.3549C78.4338 24.3549 77.7642 24.2065 77.1643 23.9095C76.5644 23.6126 76.0887 23.1551 75.7372 22.5369C75.3857 21.9188 75.21 21.131 75.21 20.1736C75.21 19.2767 75.3918 18.501 75.7554 17.8466C76.1189 17.1921 76.5977 16.6861 77.1916 16.3285C77.7854 15.971 78.4157 15.7922 79.0823 15.7922C79.87 15.7922 80.467 15.9225 80.873 16.1831C81.279 16.4437 81.6153 16.7315 81.882 17.0466L81.7729 17.3557L82.0092 16.1922L84.3726 16.1922L84.3726 24.1368L81.8274 24.1368L81.8274 22.4097L82.0274 22.9551C82.0032 22.9551 81.9304 23.0248 81.8092 23.1642C81.688 23.3035 81.5093 23.4671 81.2729 23.655C81.0366 23.8429 80.7457 24.0065 80.4003 24.1459C80.0549 24.2852 79.6458 24.3549 79.1732 24.3549L79.1732 24.3549ZM79.9004 22.2824C80.2034 22.2824 80.4761 22.237 80.7185 22.1461C80.9608 22.0552 81.1729 21.9219 81.3547 21.7461C81.5365 21.5704 81.6941 21.3492 81.8274 21.0826L81.8274 19.1373C81.7305 18.8707 81.585 18.6434 81.3911 18.4556C81.1972 18.2677 80.9669 18.1223 80.7003 18.0193C80.4336 17.9163 80.1367 17.8647 79.8095 17.8647C79.4459 17.8647 79.1095 17.9587 78.8005 18.1465C78.4914 18.3344 78.246 18.5919 78.0642 18.9192C77.8824 19.2464 77.7915 19.6221 77.7915 20.0463C77.7915 20.4705 77.8885 20.8523 78.0824 21.1917C78.2763 21.531 78.5338 21.7976 78.855 21.9916C79.1762 22.1855 79.5246 22.2824 79.9004 22.2824L79.9004 22.2824ZM69.6833 24.3548C68.7137 24.3548 67.8926 24.173 67.2199 23.8094C66.5472 23.4458 66.0352 22.9429 65.6837 22.3005C65.3322 21.6581 65.1565 20.9188 65.1565 20.0826C65.1565 19.2826 65.3625 18.5615 65.7746 17.9192C66.1867 17.2768 66.7381 16.7647 67.429 16.383C68.1198 16.0012 68.8894 15.8103 69.7378 15.8103C70.8771 15.8103 71.8133 16.1406 72.5466 16.8011C73.2798 17.4616 73.7555 18.4161 73.9737 19.6644L67.7926 21.6278L67.229 20.2462L71.7012 18.7373L71.174 18.9736C71.0771 18.6585 70.9043 18.3827 70.6559 18.1464C70.4074 17.9101 70.0347 17.7919 69.5378 17.7919C69.1621 17.7919 68.8318 17.8798 68.547 18.0555C68.2622 18.2312 68.0441 18.4797 67.8926 18.8009C67.7411 19.1221 67.6653 19.5008 67.6653 19.9371C67.6653 20.434 67.7562 20.8491 67.938 21.1824C68.1198 21.5157 68.3683 21.7672 68.6834 21.9369C68.9985 22.1066 69.35 22.1914 69.7378 22.1914C70.0166 22.1914 70.2862 22.1429 70.5468 22.046C70.8074 21.949 71.0649 21.8218 71.3195 21.6642L72.4466 23.5549C72.0224 23.7973 71.5649 23.9912 71.074 24.1367C70.5832 24.2821 70.1196 24.3548 69.6833 24.3548L69.6833 24.3548ZM54.5396 10.7563L57.1756 10.7563L57.1756 21.5915L63.4658 21.5915L63.4658 24.1367L54.5396 24.1367L54.5396 10.7563Z" id="Leaf-ID-Copy" fill="url(#gradient_1)" stroke="none" />
    <g id="Rectangle-4-Copy">
      <use stroke="none" fill="url(#gradient_2)" xlink:href="#path_1" fill-rule="evenodd" />
      <g clip-path="url(#clip_1)">
        <use xlink:href="#path_1" fill="none" stroke="#000000" stroke-opacity="0.101960786" stroke-width="2" />
      </g>
    </g>
    <g id="Rectangle-5-Copy-2">
      <use stroke="none" fill="url(#gradient_3)" xlink:href="#path_2" fill-rule="evenodd" />
      <g clip-path="url(#clip_2)">
        <use xlink:href="#path_2" fill="none" stroke="#000000" stroke-opacity="0.101960786" stroke-width="2" />
      </g>
    </g>
    <g id="Rectangle-5-Copy-3">
      <use stroke="none" fill="url(#gradient_4)" xlink:href="#path_3" fill-rule="evenodd" />
      <g clip-path="url(#clip_3)">
        <use xlink:href="#path_3" fill="none" stroke="#000000" stroke-opacity="0.101960786" stroke-width="2" />
      </g>
    </g>
  </g>
</svg>