<?xml version="1.0" encoding="utf-8"?>
<svg width="114.15662px" height="39px" viewBox="0 0 114.15662 39" version="1.1" xmlns:xlink="http://www.w3.org/1999/xlink" xmlns="http://www.w3.org/2000/svg">
  <defs>
    <linearGradient gradientUnits="objectBoundingBox" x1="0" y1="0" x2="1" y2="1" id="gradient_1">
      <stop offset="0%" stop-color="#46FF93" />
      <stop offset="99.38271%" stop-color="#004E9C" />
    </linearGradient>
  </defs>
  <g id="Group-5">
    <path d="M102.776 26.7375L102.776 13.3572L106.776 13.3572C108.121 13.3572 109.266 13.5572 110.212 13.9571C111.157 14.3571 111.917 14.8903 112.493 15.5569C113.069 16.2235 113.49 16.9689 113.757 17.7931C114.023 18.6172 114.157 19.4474 114.157 20.2837C114.157 21.2775 113.978 22.1714 113.62 22.9652C113.263 23.7591 112.775 24.4378 112.157 25.0013C111.539 25.5649 110.824 25.9952 110.012 26.2921C109.2 26.5891 108.339 26.7375 107.43 26.7375L102.776 26.7375ZM105.412 24.1925L106.976 24.1925C107.642 24.1925 108.248 24.1046 108.794 23.9288C109.339 23.7531 109.809 23.4956 110.202 23.1562C110.596 22.8168 110.899 22.3896 111.111 21.8745C111.324 21.3594 111.43 20.7686 111.43 20.102C111.43 19.2294 111.287 18.5173 111.002 17.9659C110.718 17.4144 110.366 16.9872 109.948 16.6842C109.53 16.3812 109.103 16.1721 108.666 16.057C108.23 15.9418 107.86 15.8843 107.557 15.8843L105.412 15.8843L105.412 24.1925ZM100.457 14.5442C100.457 13.1633 99.3376 12.0442 97.9567 12.0442C96.5758 12.0442 95.4567 13.1633 95.4567 14.5442C95.4567 15.9251 96.5758 17.0442 97.9567 17.0442C99.3376 17.0442 100.457 15.9251 100.457 14.5442ZM99.3219 18.7375L96.6858 18.7375L96.6858 26.7375L99.3219 26.7375L99.3219 18.7375ZM83.2144 26.7376L83.2144 21.0109L81.8691 21.0109L81.8691 18.7566L83.2144 18.7566L83.2144 15.9933C83.2144 14.951 83.5144 14.0996 84.1143 13.439C84.7143 12.7785 85.5839 12.4482 86.7232 12.4482C87.0625 12.4482 87.4413 12.4998 87.8594 12.6028C88.2775 12.7058 88.6441 12.8724 88.9593 13.1027L87.8867 14.9389C87.7655 14.7813 87.623 14.6753 87.4594 14.6207C87.2958 14.5662 87.1413 14.5389 86.9958 14.5389C86.6323 14.5389 86.3353 14.6601 86.105 14.9025C85.8748 15.1449 85.7596 15.5328 85.7596 16.066L85.7596 18.7566L88.1594 18.7566L88.1594 21.0109L85.7596 21.0109L85.7596 26.7376L83.2144 26.7376ZM74.6336 26.9558C73.8943 26.9558 73.2247 26.8073 72.6247 26.5104C72.0248 26.2134 71.5491 25.7559 71.1976 25.1378C70.8461 24.5197 70.6704 23.7319 70.6704 22.7744C70.6704 21.8775 70.8522 21.1019 71.2158 20.4474C71.5794 19.7929 72.0581 19.2869 72.652 18.9294C73.2459 18.5718 73.8761 18.3931 74.5427 18.3931C75.3305 18.3931 75.9274 18.5234 76.3334 18.7839C76.7394 19.0445 77.0758 19.3324 77.3424 19.6475L77.2333 19.9565L77.4697 18.793L79.833 18.793L79.833 26.7376L77.2879 26.7376L77.2879 25.0105L77.4878 25.5559C77.4636 25.5559 77.3909 25.6256 77.2697 25.765C77.1485 25.9044 76.9697 26.068 76.7334 26.2558C76.497 26.4437 76.2062 26.6073 75.8607 26.7467C75.5153 26.8861 75.1063 26.9558 74.6336 26.9558L74.6336 26.9558ZM75.3608 24.8833C75.6638 24.8833 75.9365 24.8378 76.1789 24.7469C76.4213 24.656 76.6334 24.5227 76.8152 24.347C76.997 24.1712 77.1546 23.95 77.2879 23.6834L77.2879 21.7382C77.1909 21.4715 77.0455 21.2443 76.8516 21.0564C76.6576 20.8686 76.4274 20.7231 76.1607 20.6201C75.8941 20.5171 75.5972 20.4656 75.2699 20.4656C74.9063 20.4656 74.57 20.5595 74.2609 20.7474C73.9519 20.9352 73.7065 21.1928 73.5247 21.52C73.3428 21.8472 73.252 22.223 73.252 22.6472C73.252 23.0714 73.3489 23.4531 73.5428 23.7925C73.7367 24.1318 73.9943 24.3985 74.3155 24.5924C74.6367 24.7863 74.9851 24.8833 75.3608 24.8833L75.3608 24.8833ZM65.1437 26.9556C64.1741 26.9556 63.353 26.7738 62.6804 26.4103C62.0077 26.0467 61.4956 25.5437 61.1442 24.9013C60.7927 24.259 60.6169 23.5197 60.6169 22.6834C60.6169 21.8835 60.823 21.1623 61.2351 20.52C61.6471 19.8776 62.1986 19.3656 62.8894 18.9838C63.5803 18.602 64.3499 18.4111 65.1983 18.4111C66.3375 18.4111 67.2738 18.7414 68.007 19.4019C68.7403 20.0625 69.216 21.0169 69.4342 22.2653L63.253 24.2287L62.6894 22.847L67.1617 21.3381L66.6345 21.5744C66.5375 21.2593 66.3648 20.9836 66.1163 20.7472C65.8679 20.5109 65.4952 20.3927 64.9983 20.3927C64.6226 20.3927 64.2923 20.4806 64.0075 20.6563C63.7227 20.8321 63.5045 21.0805 63.353 21.4017C63.2015 21.7229 63.1258 22.1016 63.1258 22.538C63.1258 23.0349 63.2167 23.45 63.3985 23.7833C63.5803 24.1166 63.8287 24.3681 64.1438 24.5377C64.4589 24.7074 64.8104 24.7922 65.1983 24.7922C65.477 24.7922 65.7467 24.7438 66.0073 24.6468C66.2678 24.5499 66.5254 24.4226 66.7799 24.265L67.907 26.1557C67.4828 26.3981 67.0253 26.592 66.5345 26.7375C66.0436 26.8829 65.58 26.9556 65.1437 26.9556L65.1437 26.9556ZM50 13.3572L52.6361 13.3572L52.6361 24.1923L58.9263 24.1923L58.9263 26.7375L50 26.7375L50 13.3572Z" id="Leaf-ID-Copy-2" fill="#014572" stroke="none" />
    <path d="M0 19.5C0 8.73045 8.73045 0 19.5 0C30.2696 0 39 8.73045 39 19.5C39 30.2696 30.2696 39 19.5 39C8.73045 39 0 30.2696 0 19.5Z" id="Oval" fill="url(#gradient_1)" fill-rule="evenodd" stroke="none" />
    <g id="Group-3" transform="matrix(0.99999994 7.526111E-09 -7.526111E-09 0.99999994 10.192383 6)">
      <path d="M5.78524 0.0536614C6.37501 0.288983 7.17817 0.652462 7.6945 1.06074C8.59291 1.77116 8.62288 2.61723 8.62288 2.61723L10.3627 2.61724C10.9982 3.02377 11.5847 3.44119 12.0485 3.84531C14.2173 5.73493 13.7045 7.33403 13.7045 7.33403L15.5557 7.33401C17.0488 8.99739 18.3852 10.5337 18.598 12.8416C18.8108 15.1495 17.2855 16.6612 17.2414 17.1362C17.2009 17.5709 18.6516 17.1227 18.5727 17.5453C17.7748 21.8133 15.1762 25.3844 14.1384 26.6758L11.8958 20.5926C11.8958 20.5926 14.9657 17.5719 14.8893 17.3504C14.8128 17.1289 11.59 19.7066 11.59 19.7066L9.77313 14.8346C9.70958 14.6284 14.543 10.5427 14.4806 10.3351C14.4137 10.1127 9.4512 13.7681 9.38593 13.5445C7.40611 6.75965 5.78524 0.0536614 5.78524 0.0536614Z" id="Rectangle-Copy-3" fill="#FFFFFF" fill-rule="evenodd" stroke="none" />
      <path d="M7.91963 13.3334C8.39468 14.8144 9.03419 16.6743 9.63473 18.2535C9.75005 18.5568 2.92778 17.322 3.04306 17.6174C3.18562 18.1625 10.0853 19.4186 10.1373 19.5506L13.3584 27C12.2531 26.906 9.76781 26.6329 7.91964 25.9711C5.47292 25.0951 4.14277 23.5379 4.14277 23.5379C4.14277 23.5379 4.62134 22.5165 4.14277 22.176C3.6642 21.8355 1.23287 20.6748 0.943231 19.7594C0.681811 18.9332 0.00109541 17.6008 0.00109541 17.6008C0.00109541 17.6008 0.992934 16.939 0.943196 16.6167C0.814139 15.7803 -0.0243045 14.9545 0.000717733 13.9228C0.0149534 13.3359 0.891256 13.8125 0.943202 13.2802C1.00845 12.6115 0.00108247 10.859 0.00107916 9.69695C0.0010759 8.53495 0.731894 7.65978 0.943215 7.18604L2.26476 7.18603C2.26476 7.18603 1.51735 5.58486 2.26475 3.69455C3.01215 1.80424 4.92685 -1.7391e-06 4.92685 -1.7391e-06L7.11614 10.2134C7.11614 10.2134 2.14628 9.31337 2.2285 9.69694C2.31072 10.0805 7.44502 11.7477 7.44502 11.7477C7.44502 11.7477 7.44458 11.8525 7.91963 13.3334Z" id="Rectangle-Copy-4" fill="#FFFFFF" fill-rule="evenodd" stroke="none" />
    </g>
  </g>
</svg>