<?xml version="1.0" encoding="utf-8"?>
<svg width="39px" height="39px" viewBox="0 0 39 39" version="1.1" xmlns:xlink="http://www.w3.org/1999/xlink" xmlns="http://www.w3.org/2000/svg">
  <defs>
    <linearGradient gradientUnits="objectBoundingBox" x1="0" y1="0" x2="1" y2="1" id="gradient_1">
      <stop offset="15.730338%" stop-color="#FFFFFF" />
      <stop offset="26.404493%" stop-color="#3CE693" />
      <stop offset="99.38271%" stop-color="#004E9C" />
    </linearGradient>
  </defs>
  <g id="Group-6">
    <path d="M0 19.5C0 8.73045 8.73045 0 19.5 0C30.2696 0 39 8.73045 39 19.5C39 30.2696 30.2696 39 19.5 39C8.73045 39 0 30.2696 0 19.5Z" id="Oval-Copy" fill="url(#gradient_1)" fill-rule="evenodd" stroke="none" />
    <g id="Group-3-Copy-4" transform="matrix(0.99999994 7.526111E-09 -7.526111E-09 0.99999994 10.880493 7)">
      <path d="M5.35663 0.0497323C5.90271 0.267623 6.64637 0.604177 7.12445 0.982216C7.95631 1.64001 7.98406 2.42341 7.98406 2.42341L9.59499 2.42341C10.1834 2.79983 10.7264 3.18633 11.1559 3.56052C13.1641 5.31017 12.6893 6.79081 12.6893 6.79081L14.4033 6.79079C15.7858 8.33096 17.0232 9.75348 17.2202 11.8904C17.4173 14.0274 16.005 15.4271 15.9641 15.8669C15.9267 16.2694 17.2699 15.8544 17.1968 16.2457C16.458 20.1976 14.0519 23.5041 13.091 24.6998L11.0146 19.0672C11.0146 19.0672 13.857 16.2703 13.7862 16.0653C13.7155 15.8602 10.7314 18.2469 10.7314 18.2469L9.0491 13.7358C8.99026 13.5448 13.4656 9.76184 13.4078 9.56963C13.3459 9.36361 8.75102 12.7483 8.69059 12.5412C6.85743 6.25898 5.35663 0.0497323 5.35663 0.0497323Z" id="Rectangle-Copy-3" fill="#FFFFFF" fill-rule="evenodd" stroke="none" />
      <path d="M7.33281 12.3458C7.77266 13.717 8.3648 15.4391 8.92086 16.9014C9.02763 17.1822 2.71075 16.0389 2.81749 16.3124C2.94949 16.8171 9.33801 17.9802 9.38622 18.1024L12.3687 25C11.3452 24.9129 9.04408 24.6601 7.33281 24.0473C5.06734 23.2362 3.83573 21.7944 3.83573 21.7944C3.83573 21.7944 4.27885 20.8486 3.83573 20.5333C3.39262 20.218 1.14139 19.1433 0.873206 18.2957C0.631152 17.5307 0.000862379 16.297 0.000862379 16.297C0.000862379 16.297 0.919227 15.6843 0.873173 15.3858C0.753677 14.6114 -0.0226559 13.8467 0.000512684 12.8915C0.0136938 12.348 0.825081 12.7894 0.873179 12.2965C0.933597 11.6773 0.000850398 10.0546 0.000847339 8.97866C0.000844317 7.90273 0.677524 7.09239 0.873191 6.65374L2.09684 6.65373C2.09684 6.65373 1.4048 5.17117 2.09683 3.42088C2.78887 1.67059 4.56173 -1.61027e-06 4.56173 -1.61027e-06L6.58883 9.45688C6.58883 9.45688 1.98714 8.62349 2.06327 8.97865C2.1394 9.33381 6.89335 10.8775 6.89335 10.8775C6.89335 10.8775 6.89295 10.9745 7.33281 12.3458Z" id="Rectangle-Copy-4" fill="#FFFFFF" fill-rule="evenodd" stroke="none" />
    </g>
  </g>
</svg>