<?xml version="1.0" encoding="utf-8"?>
<svg width="142.19995px" height="142.19995px" viewBox="0 0 142.19995 142.19995" version="1.1" xmlns:xlink="http://www.w3.org/1999/xlink" xmlns="http://www.w3.org/2000/svg">
  <path d="M116.2 0C130.561 0 142.2 11.6386 142.2 26L142.2 116.2C142.2 130.561 130.561 142.2 116.2 142.2L26 142.2C11.6387 142.2 0 130.561 0 116.2L0 26C0 11.6386 11.6387 0 26 0L116.2 0Z" id="Rectangle-4" fill="#FFFFFF" stroke="none" />
  <g id="Group-3-Copy-3" transform="translate(21.099854 20.093384)">
    <path d="M93.4402 30.7822C94.1535 32.067 95.0576 33.9128 95.365 35.4902C95.8998 38.2352 94.6284 40.1679 94.6284 40.1679L97.821 42.4034C98.3499 44.1304 98.7718 45.8184 98.9893 47.3192C100.007 54.3368 96.5589 57.2582 96.5589 57.2582L99.9558 59.6368C100.088 65.2795 100.132 70.4365 96.9042 75.8769C93.6766 81.3179 88.5078 82.7425 87.6819 83.7495C86.9264 84.6707 90.291 85.5314 89.4838 86.3757C81.3284 94.9065 70.9614 99.563 67.0324 101.121L72.454 84.6195C72.454 84.6195 82.823 81.8007 83.0299 81.2068C83.2369 80.6126 73.2818 82.2429 73.2818 82.2429L77.5858 68.9999C77.7924 68.4568 93.067 65.5197 93.278 64.9746C93.5042 64.3907 78.6668 66.1987 78.8977 65.614C85.9014 47.8793 93.4402 30.7822 93.4402 30.7822Z" id="Rectangle-Copy-5" fill="#077500" fill-rule="evenodd" stroke="none" />
    <path d="M76.5352 63.2573C75.047 67.0183 73.343 72.1695 71.9692 76.477C71.9172 76.6401 70.9674 76.2498 70.9674 76.2498L69.9305 79.3604C69.9305 79.3604 70.8805 79.9538 70.858 80.027L65.0903 100.845C64.0669 99.9574 62.3771 98.4265 60.6698 96.594C60.3099 96.2077 64.3686 91.528 67.7053 84.5448C70.6322 78.4193 72.7669 70.2016 74.078 65.8811C74.8037 65.1551 70.084 64.0706 69.9305 63.2573C69.849 62.8255 72.1601 59.7998 73.0411 56.9146C73.8196 54.365 73.1535 51.9253 73.4639 51.4819C74.7593 49.6319 72.054 40.9962 72.054 40.9962C72.054 40.9962 73.0439 40.7576 73.3706 40.5295L75.7957 42.2276C75.7957 42.2276 76.9343 37.6825 81.2694 34.4105C85.6044 31.1384 91.9465 29.559 91.9465 29.559L79.9521 55.2395C79.9521 55.2395 75.4295 51.1956 73.8075 50.2562C73.7245 51.1799 73.4639 51.4819 73.4639 51.4819L78.1503 59.0974C78.1503 59.0974 78.0235 59.4964 76.5352 63.2573Z" id="Rectangle-Copy-6" fill="#1F9A17" fill-rule="evenodd" stroke="none" />
    <path d="M21.8607 0.201057C24.089 1.09017 27.1236 2.46349 29.0744 4.00609C32.4689 6.69024 32.5821 9.88692 32.5821 9.88692L39.1557 9.88693C41.5567 11.4229 43.7727 13 45.5252 14.5269C53.7197 21.6664 51.7822 27.7082 51.7822 27.7082L58.7762 27.7082C64.4178 33.9929 69.4671 39.7975 70.2711 48.5174C71.0751 57.2373 65.3123 62.9487 65.1453 64.7436C64.9926 66.3858 70.4739 64.6926 70.1754 66.289C67.1609 82.4149 57.3426 95.9075 53.4214 100.787L44.9483 77.8026C44.9483 77.8026 56.5473 66.3898 56.2584 65.5529C55.9696 64.716 43.7928 74.4552 43.7928 74.4552L36.9281 56.0473C36.688 55.2682 54.95 39.8316 54.7143 39.0473C54.4617 38.2066 35.7117 52.0179 35.4652 51.1729C27.9848 25.5381 21.8607 0.201057 21.8607 0.201057Z" id="Rectangle-Copy-3" fill="#077500" fill-rule="evenodd" stroke="none" />
    <path d="M29.9221 50.3773C31.717 55.9728 34.1333 62.9998 36.4023 68.9667C36.838 70.1124 11.0614 65.4471 11.497 66.5632C12.0356 68.6226 38.1045 73.3686 38.3013 73.8673L50.4716 102.013C46.2953 101.658 36.9051 100.626 29.9222 98.1259C20.6777 94.8159 15.652 88.9326 15.652 88.9326C15.652 88.9326 17.4602 85.0732 15.652 83.7867C13.8438 82.5003 4.6575 78.1148 3.56317 74.6563C2.57545 71.5347 0.00349554 66.5004 0.00349554 66.5004C0.00349554 66.5004 3.75097 64.0001 3.56304 62.7823C3.07542 59.6223 -0.0924695 56.502 0.00207348 52.604C0.0558609 50.3864 3.3668 52.1875 3.56307 50.1762C3.80961 47.6497 0.00345564 41.0281 0.00344471 36.6377C0.00343393 32.2473 2.76469 28.9407 3.56312 27.1508L8.55632 27.1507C8.55632 27.1507 5.7324 21.1011 8.55631 13.959C11.3802 6.81691 18.6145 0 18.6145 0L26.8863 38.5891C26.8863 38.5891 8.10868 35.1884 8.41933 36.6376C8.72998 38.0869 28.1289 44.3861 28.1289 44.3861C28.1289 44.3861 28.1273 44.7819 29.9221 50.3773Z" id="Rectangle-Copy-4" fill="#1F9A17" fill-rule="evenodd" stroke="none" />
  </g>
</svg>